{
	"asset":{
		"generator":"Khronos glTF Blender I/O v4.2.70",
		"version":"2.0"
	},
	"scene":0,
	"scenes":[
		{
			"name":"Scene",
			"nodes":[
				0,
				1,
				2,
				3,
				4,
				5,
				6,
				7,
				8
			]
		}
	],
	"nodes":[
		{
			"mesh":0,
			"name":"block"
		},
		{
			"mesh":1,
			"name":"back_right_stair"
		},
		{
			"mesh":2,
			"name":"back_left_stair"
		},
		{
			"mesh":3,
			"name":"front_left_stair"
		},
		{
			"mesh":4,
			"name":"front_right_stair"
		},
		{
			"mesh":5,
			"name":"back_right_wall"
		},
		{
			"mesh":6,
			"name":"front_right_wall"
		},
		{
			"mesh":7,
			"name":"back_left_wall"
		},
		{
			"mesh":8,
			"name":"front_left_wall"
		}
	],
	"materials":[
		{
			"doubleSided":true,
			"name":"block_mat",
			"pbrMetallicRoughness":{
				"metallicFactor":0,
				"roughnessFactor":0.5
			}
		},
		{
			"doubleSided":true,
			"name":"stair_mat",
			"pbrMetallicRoughness":{
				"metallicFactor":0,
				"roughnessFactor":0.5
			}
		},
		{
			"doubleSided":true,
			"name":"wall_mat",
			"pbrMetallicRoughness":{
				"metallicFactor":0,
				"roughnessFactor":0.5
			}
		},
		{
			"doubleSided":true,
			"name":"wall_mat.004",
			"pbrMetallicRoughness":{
				"metallicFactor":0,
				"roughnessFactor":0.5
			}
		},
		{
			"doubleSided":true,
			"name":"wall_mat.005",
			"pbrMetallicRoughness":{
				"metallicFactor":0,
				"roughnessFactor":0.5
			}
		},
		{
			"doubleSided":true,
			"name":"wall_mat.006",
			"pbrMetallicRoughness":{
				"metallicFactor":0,
				"roughnessFactor":0.5
			}
		}
	],
	"meshes":[
		{
			"name":"Cube",
			"primitives":[
				{
					"attributes":{
						"POSITION":0,
						"NORMAL":1,
						"TEXCOORD_0":2,
						"TANGENT":3
					},
					"indices":4,
					"material":0
				}
			]
		},
		{
			"name":"Cube.001",
			"primitives":[
				{
					"attributes":{
						"POSITION":5,
						"NORMAL":6,
						"TEXCOORD_0":7
					},
					"indices":8,
					"material":1
				}
			]
		},
		{
			"name":"Cube.002",
			"primitives":[
				{
					"attributes":{
						"POSITION":9,
						"NORMAL":10,
						"TEXCOORD_0":11
					},
					"indices":12,
					"material":1
				}
			]
		},
		{
			"name":"Cube.009",
			"primitives":[
				{
					"attributes":{
						"POSITION":13,
						"NORMAL":14,
						"TEXCOORD_0":15
					},
					"indices":8,
					"material":1
				}
			]
		},
		{
			"name":"Cube.010",
			"primitives":[
				{
					"attributes":{
						"POSITION":16,
						"NORMAL":17,
						"TEXCOORD_0":18
					},
					"indices":19,
					"material":1
				}
			]
		},
		{
			"name":"Cube.011",
			"primitives":[
				{
					"attributes":{
						"POSITION":20,
						"NORMAL":21,
						"TEXCOORD_0":22,
						"TANGENT":23
					},
					"indices":24,
					"material":2
				}
			]
		},
		{
			"name":"Cube.012",
			"primitives":[
				{
					"attributes":{
						"POSITION":25,
						"NORMAL":26,
						"TEXCOORD_0":27,
						"TANGENT":28
					},
					"indices":29,
					"material":3
				}
			]
		},
		{
			"name":"Cube.013",
			"primitives":[
				{
					"attributes":{
						"POSITION":30,
						"NORMAL":31,
						"TEXCOORD_0":32,
						"TANGENT":33
					},
					"indices":29,
					"material":4
				}
			]
		},
		{
			"name":"Cube.014",
			"primitives":[
				{
					"attributes":{
						"POSITION":34,
						"NORMAL":35,
						"TEXCOORD_0":36,
						"TANGENT":37
					},
					"indices":24,
					"material":5
				}
			]
		}
	],
	"accessors":[
		{
			"bufferView":0,
			"componentType":5126,
			"count":24,
			"max":[
				1,
				1,
				1
			],
			"min":[
				-1,
				-1,
				-1
			],
			"type":"VEC3"
		},
		{
			"bufferView":1,
			"componentType":5126,
			"count":24,
			"type":"VEC3"
		},
		{
			"bufferView":2,
			"componentType":5126,
			"count":24,
			"type":"VEC2"
		},
		{
			"bufferView":3,
			"componentType":5126,
			"count":24,
			"type":"VEC4"
		},
		{
			"bufferView":4,
			"componentType":5123,
			"count":36,
			"type":"SCALAR"
		},
		{
			"bufferView":5,
			"componentType":5126,
			"count":72,
			"max":[
				1,
				1,
				1
			],
			"min":[
				-1,
				-1,
				-1
			],
			"type":"VEC3"
		},
		{
			"bufferView":6,
			"componentType":5126,
			"count":72,
			"type":"VEC3"
		},
		{
			"bufferView":7,
			"componentType":5126,
			"count":72,
			"type":"VEC2"
		},
		{
			"bufferView":8,
			"componentType":5123,
			"count":132,
			"type":"SCALAR"
		},
		{
			"bufferView":9,
			"componentType":5126,
			"count":72,
			"max":[
				1,
				1,
				1
			],
			"min":[
				-1,
				-1,
				-1
			],
			"type":"VEC3"
		},
		{
			"bufferView":10,
			"componentType":5126,
			"count":72,
			"type":"VEC3"
		},
		{
			"bufferView":11,
			"componentType":5126,
			"count":72,
			"type":"VEC2"
		},
		{
			"bufferView":12,
			"componentType":5123,
			"count":132,
			"type":"SCALAR"
		},
		{
			"bufferView":13,
			"componentType":5126,
			"count":72,
			"max":[
				1,
				1,
				1
			],
			"min":[
				-1,
				-1,
				-1
			],
			"type":"VEC3"
		},
		{
			"bufferView":14,
			"componentType":5126,
			"count":72,
			"type":"VEC3"
		},
		{
			"bufferView":15,
			"componentType":5126,
			"count":72,
			"type":"VEC2"
		},
		{
			"bufferView":16,
			"componentType":5126,
			"count":72,
			"max":[
				1.0000001192092896,
				1,
				1.0000001192092896
			],
			"min":[
				-1.0000001192092896,
				-1,
				-1.0000001192092896
			],
			"type":"VEC3"
		},
		{
			"bufferView":17,
			"componentType":5126,
			"count":72,
			"type":"VEC3"
		},
		{
			"bufferView":18,
			"componentType":5126,
			"count":72,
			"type":"VEC2"
		},
		{
			"bufferView":19,
			"componentType":5123,
			"count":132,
			"type":"SCALAR"
		},
		{
			"bufferView":20,
			"componentType":5126,
			"count":24,
			"max":[
				1,
				1,
				1
			],
			"min":[
				-5.960464477539063e-08,
				-1,
				-1
			],
			"type":"VEC3"
		},
		{
			"bufferView":21,
			"componentType":5126,
			"count":24,
			"type":"VEC3"
		},
		{
			"bufferView":22,
			"componentType":5126,
			"count":24,
			"type":"VEC2"
		},
		{
			"bufferView":23,
			"componentType":5126,
			"count":24,
			"type":"VEC4"
		},
		{
			"bufferView":24,
			"componentType":5123,
			"count":36,
			"type":"SCALAR"
		},
		{
			"bufferView":25,
			"componentType":5126,
			"count":24,
			"max":[
				1,
				1,
				1
			],
			"min":[
				-1,
				-1,
				0
			],
			"type":"VEC3"
		},
		{
			"bufferView":26,
			"componentType":5126,
			"count":24,
			"type":"VEC3"
		},
		{
			"bufferView":27,
			"componentType":5126,
			"count":24,
			"type":"VEC2"
		},
		{
			"bufferView":28,
			"componentType":5126,
			"count":24,
			"type":"VEC4"
		},
		{
			"bufferView":29,
			"componentType":5123,
			"count":36,
			"type":"SCALAR"
		},
		{
			"bufferView":30,
			"componentType":5126,
			"count":24,
			"max":[
				1,
				1,
				0
			],
			"min":[
				-1,
				-1,
				-1
			],
			"type":"VEC3"
		},
		{
			"bufferView":31,
			"componentType":5126,
			"count":24,
			"type":"VEC3"
		},
		{
			"bufferView":32,
			"componentType":5126,
			"count":24,
			"type":"VEC2"
		},
		{
			"bufferView":33,
			"componentType":5126,
			"count":24,
			"type":"VEC4"
		},
		{
			"bufferView":34,
			"componentType":5126,
			"count":24,
			"max":[
				5.960464477539063e-08,
				1,
				1
			],
			"min":[
				-1,
				-1,
				-1
			],
			"type":"VEC3"
		},
		{
			"bufferView":35,
			"componentType":5126,
			"count":24,
			"type":"VEC3"
		},
		{
			"bufferView":36,
			"componentType":5126,
			"count":24,
			"type":"VEC2"
		},
		{
			"bufferView":37,
			"componentType":5126,
			"count":24,
			"type":"VEC4"
		}
	],
	"bufferViews":[
		{
			"buffer":0,
			"byteLength":288,
			"byteOffset":0,
			"target":34962
		},
		{
			"buffer":0,
			"byteLength":288,
			"byteOffset":288,
			"target":34962
		},
		{
			"buffer":0,
			"byteLength":192,
			"byteOffset":576,
			"target":34962
		},
		{
			"buffer":0,
			"byteLength":384,
			"byteOffset":768,
			"target":34962
		},
		{
			"buffer":0,
			"byteLength":72,
			"byteOffset":1152,
			"target":34963
		},
		{
			"buffer":0,
			"byteLength":864,
			"byteOffset":1224,
			"target":34962
		},
		{
			"buffer":0,
			"byteLength":864,
			"byteOffset":2088,
			"target":34962
		},
		{
			"buffer":0,
			"byteLength":576,
			"byteOffset":2952,
			"target":34962
		},
		{
			"buffer":0,
			"byteLength":264,
			"byteOffset":3528,
			"target":34963
		},
		{
			"buffer":0,
			"byteLength":864,
			"byteOffset":3792,
			"target":34962
		},
		{
			"buffer":0,
			"byteLength":864,
			"byteOffset":4656,
			"target":34962
		},
		{
			"buffer":0,
			"byteLength":576,
			"byteOffset":5520,
			"target":34962
		},
		{
			"buffer":0,
			"byteLength":264,
			"byteOffset":6096,
			"target":34963
		},
		{
			"buffer":0,
			"byteLength":864,
			"byteOffset":6360,
			"target":34962
		},
		{
			"buffer":0,
			"byteLength":864,
			"byteOffset":7224,
			"target":34962
		},
		{
			"buffer":0,
			"byteLength":576,
			"byteOffset":8088,
			"target":34962
		},
		{
			"buffer":0,
			"byteLength":864,
			"byteOffset":8664,
			"target":34962
		},
		{
			"buffer":0,
			"byteLength":864,
			"byteOffset":9528,
			"target":34962
		},
		{
			"buffer":0,
			"byteLength":576,
			"byteOffset":10392,
			"target":34962
		},
		{
			"buffer":0,
			"byteLength":264,
			"byteOffset":10968,
			"target":34963
		},
		{
			"buffer":0,
			"byteLength":288,
			"byteOffset":11232,
			"target":34962
		},
		{
			"buffer":0,
			"byteLength":288,
			"byteOffset":11520,
			"target":34962
		},
		{
			"buffer":0,
			"byteLength":192,
			"byteOffset":11808,
			"target":34962
		},
		{
			"buffer":0,
			"byteLength":384,
			"byteOffset":12000,
			"target":34962
		},
		{
			"buffer":0,
			"byteLength":72,
			"byteOffset":12384,
			"target":34963
		},
		{
			"buffer":0,
			"byteLength":288,
			"byteOffset":12456,
			"target":34962
		},
		{
			"buffer":0,
			"byteLength":288,
			"byteOffset":12744,
			"target":34962
		},
		{
			"buffer":0,
			"byteLength":192,
			"byteOffset":13032,
			"target":34962
		},
		{
			"buffer":0,
			"byteLength":384,
			"byteOffset":13224,
			"target":34962
		},
		{
			"buffer":0,
			"byteLength":72,
			"byteOffset":13608,
			"target":34963
		},
		{
			"buffer":0,
			"byteLength":288,
			"byteOffset":13680,
			"target":34962
		},
		{
			"buffer":0,
			"byteLength":288,
			"byteOffset":13968,
			"target":34962
		},
		{
			"buffer":0,
			"byteLength":192,
			"byteOffset":14256,
			"target":34962
		},
		{
			"buffer":0,
			"byteLength":384,
			"byteOffset":14448,
			"target":34962
		},
		{
			"buffer":0,
			"byteLength":288,
			"byteOffset":14832,
			"target":34962
		},
		{
			"buffer":0,
			"byteLength":288,
			"byteOffset":15120,
			"target":34962
		},
		{
			"buffer":0,
			"byteLength":192,
			"byteOffset":15408,
			"target":34962
		},
		{
			"buffer":0,
			"byteLength":384,
			"byteOffset":15600,
			"target":34962
		}
	],
	"buffers":[
		{
			"byteLength":15984,
			"uri":"Tiles-2f137300f0bb894d78f390ed98331b2c.bin"
		}
	]
}
